<mxfile host="app.diagrams.net">
  <diagram name="Student Information System" id="s1">
    <mxGraphModel dx="1180" dy="780" grid="1" gridSize="10" guides="1" tooltips="1" connect="1" arrows="1" fold="1" page="1" pageScale="1" pageWidth="827" pageHeight="1169" math="0" shadow="0">
      <root>
        <mxCell id="0" />
        <mxCell id="1" parent="0" />
        
        <!-- Admin -->
        <mxCell id="2" value="ADMIN" style="shape=rectangle;fillColor=#6A1B9A;fontColor=#FFFFFF;" vertex="1" parent="1">
          <mxGeometry x="50" y="80" width="100" height="40" as="geometry" />
        </mxCell>

        <!-- Login -->
        <mxCell id="3" value="Login to System" style="ellipse;fillColor=#26A69A;" vertex="1" parent="1">
          <mxGeometry x="200" y="80" width="120" height="50" as="geometry" />
        </mxCell>

        <!-- Check Credentials -->
        <mxCell id="4" value="Check Credentials" style="ellipse;fillColor=#FFCA28;" vertex="1" parent="1">
          <mxGeometry x="200" y="180" width="120" height="50" as="geometry" />
        </mxCell>

        <mxCell id="5" value="Check Credentials" style="ellipse;fillColor=#FFCA28;" vertex="1" parent="1">
          <mxGeometry x="50" y="180" width="120" height="50" as="geometry" />
        </mxCell>

        <!-- Check Roles -->
        <mxCell id="6" value="Check Roles of Access" style="ellipse;fillColor=#26A69A;" vertex="1" parent="1">
          <mxGeometry x="370" y="80" width="140" height="50" as="geometry" />
        </mxCell>

        <!-- Manager Modules -->
        <mxCell id="7" value="Manager Modules" style="ellipse;fillColor=#8D6E63;" vertex="1" parent="1">
          <mxGeometry x="370" y="180" width="120" height="60" as="geometry" />
        </mxCell>

        <!-- Management Options -->
        <mxCell id="8" value="Manage Time Table Details" style="shape=rectangle;fillColor=#FFD54F;" vertex="1" parent="1">
          <mxGeometry x="570" y="30" width="200" height="40" as="geometry" />
        </mxCell>

        <mxCell id="9" value="Manage Attendance Details" style="shape=rectangle;fillColor=#FFD54F;" vertex="1" parent="1">
          <mxGeometry x="570" y="80" width="200" height="40" as="geometry" />
        </mxCell>

        <mxCell id="10" value="Manage Class Details" style="shape=rectangle;fillColor=#FFD54F;" vertex="1" parent="1">
          <mxGeometry x="570" y="130" width="200" height="40" as="geometry" />
        </mxCell>

        <mxCell id="11" value="Manage Student Details" style="shape=rectangle;fillColor=#FFD54F;" vertex="1" parent="1">
          <mxGeometry x="570" y="180" width="200" height="40" as="geometry" />
        </mxCell>

        <mxCell id="12" value="Manage Fee Details" style="shape=rectangle;fillColor=#FFD54F;" vertex="1" parent="1">
          <mxGeometry x="570" y="230" width="200" height="40" as="geometry" />
        </mxCell>

        <mxCell id="13" value="Manage Teacher Profiles" style="shape=rectangle;fillColor=#FFD54F;" vertex="1" parent="1">
          <mxGeometry x="570" y="280" width="200" height="40" as="geometry" />
        </mxCell>

        <mxCell id="14" value="Manage Report" style="shape=rectangle;fillColor=#FFD54F;" vertex="1" parent="1">
          <mxGeometry x="570" y="330" width="200" height="40" as="geometry" />
        </mxCell>

        <mxCell id="15" value="Manage System Admins" style="shape=rectangle;fillColor=#FFB74D;" vertex="1" parent="1">
          <mxGeometry x="200" y="300" width="200" height="40" as="geometry" />
        </mxCell>

        <mxCell id="16" value="Manage Roles of User" style="shape=rectangle;fillColor=#FFB74D;" vertex="1" parent="1">
          <mxGeometry x="420" y="300" width="200" height="40" as="geometry" />
        </mxCell>

        <mxCell id="17" value="Manage User Permission" style="shape=rectangle;fillColor=#FFB74D;" vertex="1" parent="1">
          <mxGeometry x="640" y="300" width="200" height="40" as="geometry" />
        </mxCell>

        <!-- Connections -->
        <mxCell id="e1" edge="1" parent="1" source="2" target="3"><mxGeometry relative="1" as="geometry" /></mxCell>
        <mxCell id="e2" edge="1" parent="1" source="2" target="5"><mxGeometry relative="1" as="geometry" /></mxCell>
        <mxCell id="e3" edge="1" parent="1" source="3" target="4"><mxGeometry relative="1" as="geometry" /></mxCell>
        <mxCell id="e4" edge="1" parent="1" source="3" target="6"><mxGeometry relative="1" as="geometry" /></mxCell>
        <mxCell id="e5" edge="1" parent="1" source="4" target="7"><mxGeometry relative="1" as="geometry" /></mxCell>
        <mxCell id="e6" edge="1" parent="1" source="5" target="7"><mxGeometry relative="1" as="geometry" /></mxCell>
        <mxCell id="e7" edge="1" parent="1" source="6" target="7"><mxGeometry relative="1" as="geometry" /></mxCell>

        <mxCell id="e8" edge="1" parent="1" source="7" target="8"/><mxCell id="e9" edge="1" parent="1" source="7" target="9"/>
        <mxCell id="e10" edge="1" parent="1" source="7" target="10"/><mxCell id="e11" edge="1" parent="1" source="7" target="11"/>
        <mxCell id="e12" edge="1" parent="1" source="7" target="12"/><mxCell id="e13" edge="1" parent="1" source="7" target="13"/>
        <mxCell id="e14" edge="1" parent="1" source="7" target="14"/><mxCell id="e15" edge="1" parent="1" source="7" target="15"/>
        <mxCell id="e16" edge="1" parent="1" source="7" target="16"/><mxCell id="e17" edge="1" parent="1" source="7" target="17"/>

      </root>
    </mxGraphModel>
  </diagram>
</mxfile>